<svg xmlns="http://www.w3.org/2000/svg" width="1024" height="1024" viewBox="0 0 1024 1024">
<g>
<path d="M 663.00 734.62 C655.99,736.29 646.14,736.42 513.50,736.58 C435.40,736.68 370.38,736.59 369.00,736.38 C367.62,736.17 363.20,735.51 359.18,734.91 C325.92,730.00 297.71,704.75 288.88,672.00 C286.97,664.92 286.58,660.99 286.58,648.50 C286.58,647.00 286.56,645.62 286.55,644.33 C286.52,641.51 286.49,639.09 286.63,636.69 C287.56,621.35 295.57,606.45 354.52,488.85 L 418.02 362.19 L 417.76 302.95 L 417.50 243.71 L 412.97 242.39 C406.76,240.58 400.67,235.07 397.31,228.22 C394.94,223.40 394.52,221.32 394.60,215.00 C394.77,202.83 400.62,193.49 411.53,188.00 L 416.50 185.50 L 508.17 185.23 C598.85,184.97 599.90,184.99 605.39,187.05 C612.10,189.56 618.67,195.66 622.05,202.52 C625.62,209.78 625.48,221.39 621.74,228.64 C618.45,235.00 612.26,240.42 605.86,242.55 L 601.00 244.16 L 600.98 302.33 L 600.96 360.50 L 621.21 402.00 C632.34,424.83 660.49,481.67 683.77,528.31 C707.05,574.96 726.58,614.33 727.17,615.81 C732.09,628.17 734.28,649.75 732.03,663.70 C730.18,675.24 725.46,687.17 718.89,697.00 C705.98,716.30 687.43,728.79 663.00,734.62 ZM 364.50 713.41 C370.45,714.64 392.66,714.83 513.00,714.68 L 654.50 714.50 L 661.87 711.77 C684.69,703.31 699.52,688.51 706.25,667.50 C708.16,661.53 708.48,658.37 708.43,646.00 C708.36,627.11 707.29,623.87 687.92,584.28 C679.72,567.49 673.00,553.63 673.00,553.47 C673.00,553.32 666.20,539.31 657.89,522.34 C649.58,505.38 639.50,484.52 635.49,476.00 C631.49,467.48 620.02,443.40 610.01,422.50 C600.00,401.60 589.71,380.00 587.15,374.50 L 582.50 364.50 L 581.95 227.00 L 587.02 227.00 C600.08,227.00 606.55,215.93 598.58,207.24 L 595.15 203.50 L 510.33 203.50 C505.59,203.50 501.10,203.50 496.84,203.50 C430.05,203.48 421.82,203.48 419.11,207.35 C418.56,208.14 418.24,209.09 417.69,210.24 C415.97,213.88 416.64,219.66 419.15,222.68 C421.27,225.24 426.49,227.00 431.97,227.00 L 437.00 227.00 L 436.95 363.50 L 434.63 369.00 C431.96,375.32 370.27,503.16 341.26,562.50 C313.33,619.61 312.82,620.88 311.06,637.90 C308.62,661.47 315.30,680.48 331.40,695.77 C340.10,704.04 353.34,711.09 364.50,713.41 ZM 649.40 703.69 C643.94,705.30 634.18,705.45 519.50,705.59 C451.30,705.67 391.89,705.42 387.47,705.02 C383.05,704.63 376.97,703.72 373.97,703.01 C366.93,701.35 354.62,695.19 349.08,690.57 C337.21,680.65 329.24,664.98 327.43,648.00 L 326.74 641.50 L 334.62 649.05 C350.03,663.82 363.45,672.32 384.86,680.87 C416.05,693.33 454.20,696.27 474.90,687.82 L 478.30 686.43 L 470.90 683.60 C427.81,667.07 398.67,631.46 392.91,588.28 C391.79,579.84 392.09,553.57 393.33,552.34 C393.65,552.02 399.22,553.60 405.71,555.87 C432.58,565.24 461.82,569.98 502.75,571.61 C517.88,572.21 522.61,572.96 518.95,574.18 C518.38,574.37 517.64,577.11 517.31,580.26 C516.50,588.10 518.80,593.88 524.60,598.63 C528.68,601.98 529.55,602.27 535.76,602.34 C541.03,602.41 543.91,601.82 549.00,599.64 C558.40,595.61 558.89,595.51 559.57,597.64 C559.90,598.66 561.69,602.88 563.55,607.00 C565.41,611.12 567.61,616.43 568.44,618.79 C569.92,623.02 569.90,623.14 566.72,628.29 C563.74,633.13 563.52,634.07 563.71,641.50 C563.95,650.90 565.05,655.38 567.19,655.80 C569.14,656.17 582.30,645.80 587.36,639.91 C594.08,632.09 599.01,623.67 601.07,616.50 C602.17,612.65 603.80,608.15 604.67,606.50 C609.77,596.90 611.27,593.37 611.74,589.88 C612.17,586.71 611.96,586.00 610.58,586.00 C607.58,586.00 603.42,583.22 602.09,580.33 C601.38,578.77 600.00,574.58 599.02,571.00 C598.05,567.42 596.95,563.80 596.59,562.95 C596.07,561.72 597.42,561.02 603.22,559.51 C607.22,558.48 613.82,556.35 617.89,554.79 C621.95,553.22 625.49,552.15 625.74,552.41 C626.96,553.63 628.11,570.59 627.60,579.74 C626.31,602.55 618.40,625.12 605.83,641.83 C599.99,649.59 589.48,660.48 583.82,664.63 C581.12,666.62 579.09,668.42 579.32,668.65 C582.02,671.35 613.52,668.26 631.22,663.56 C643.68,660.25 674.00,647.19 674.00,645.13 C674.00,644.67 676.24,644.51 678.97,644.77 C683.79,645.23 684.09,645.10 688.64,640.62 C691.22,638.08 693.77,636.00 694.32,636.00 C695.97,636.00 694.30,654.87 691.96,662.50 C685.82,682.60 670.45,697.47 649.40,703.69 ZM 272.02 649.25 C272.01,653.51 271.66,657.00 271.25,656.99 C269.59,656.98 247.46,643.75 239.55,638.04 C228.71,630.21 212.00,614.26 204.80,604.85 C190.12,585.67 180.10,563.09 175.37,538.50 C173.48,528.68 173.06,500.04 174.73,494.50 C175.53,491.85 176.14,491.46 179.92,491.19 C182.28,491.02 187.88,491.32 192.36,491.87 C218.07,495.02 240.60,509.61 250.88,529.77 C252.07,532.10 253.30,534.00 253.61,534.00 C254.21,534.00 253.26,524.92 252.32,521.62 C251.99,520.48 252.19,520.00 252.82,520.39 C254.00,521.12 254.56,519.51 255.49,512.67 C256.53,505.02 262.67,487.57 268.91,474.50 C281.83,447.46 303.28,418.02 328.47,392.75 C339.75,381.44 349.56,373.33 341.38,382.09 C336.06,387.78 322.47,406.34 312.86,421.03 C299.80,441.01 286.42,466.47 278.65,486.16 C274.33,497.11 268.00,517.65 268.00,520.74 C268.00,522.71 270.57,521.84 283.53,515.53 C301.66,506.69 318.24,495.04 332.25,481.30 C336.51,477.13 340.00,474.21 340.00,474.82 C340.00,476.59 328.54,497.19 318.20,514.00 C293.24,554.57 278.62,592.79 273.46,631.00 C272.68,636.78 272.03,644.99 272.02,649.25 ZM 253.09 642.83 C262.13,646.89 264.28,645.60 259.65,638.90 C258.36,637.03 256.90,635.56 256.40,635.64 C254.92,635.87 235.35,611.65 227.31,599.65 C219.20,587.54 208.56,567.05 202.57,552.00 C200.49,546.78 197.55,540.03 196.05,537.00 C194.54,533.97 192.72,529.70 192.01,527.50 C191.29,525.30 190.30,523.23 189.80,522.91 C189.31,522.59 188.83,521.35 188.74,520.16 C188.65,518.97 188.05,518.00 187.41,518.00 C185.66,518.00 184.24,515.86 183.70,512.39 C183.44,510.68 182.68,508.28 182.03,507.05 C181.37,505.83 181.08,504.59 181.38,504.29 C181.68,503.99 181.23,502.41 180.39,500.78 C179.54,499.15 179.05,497.62 179.28,497.39 C179.52,497.15 181.82,501.33 184.41,506.68 C197.44,533.64 215.84,558.92 238.13,580.52 C249.30,591.33 263.01,602.78 262.99,601.27 C262.97,599.16 258.59,582.38 255.87,574.00 C252.14,562.54 244.46,546.86 238.22,538.00 C227.65,522.97 211.80,510.24 191.78,500.69 C185.88,497.88 180.80,494.91 180.48,494.10 C180.06,492.98 180.40,493.05 181.86,494.37 C183.40,495.77 183.96,495.86 184.56,494.82 C184.98,494.09 184.96,493.83 184.51,494.23 C184.06,494.64 183.14,494.20 182.45,493.26 C181.35,491.76 180.89,491.72 178.65,492.92 C177.25,493.67 175.83,495.01 175.48,495.89 C174.47,498.50 174.86,523.69 176.05,532.34 C177.45,542.58 183.37,563.18 186.54,568.86 C187.89,571.27 189.03,573.98 189.07,574.88 C189.11,575.77 190.00,577.85 191.05,579.50 C192.09,581.15 194.12,584.70 195.56,587.38 C198.35,592.61 198.94,593.44 203.37,598.33 C204.96,600.07 207.38,603.30 208.75,605.50 C210.13,607.70 212.23,610.40 213.42,611.50 C214.62,612.60 215.10,613.28 214.49,613.00 C213.89,612.72 214.73,613.62 216.37,615.00 C218.01,616.38 220.96,619.01 222.93,620.85 C224.89,622.70 227.74,624.85 229.25,625.63 C230.76,626.41 232.00,627.49 232.00,628.03 C232.00,629.31 235.29,632.42 237.08,632.82 C237.86,632.99 239.18,633.87 240.00,634.76 C241.37,636.25 241.33,636.27 239.50,634.95 C237.64,633.60 237.60,633.63 238.91,635.30 C239.69,636.28 240.95,636.85 241.71,636.56 C242.48,636.26 242.85,636.44 242.54,636.94 C242.22,637.45 242.42,638.14 242.98,638.49 C243.54,638.84 244.01,638.53 244.03,637.81 C244.05,636.93 244.49,637.07 245.37,638.23 C246.10,639.18 249.57,641.25 253.09,642.83 ZM 529.80 557.87 C527.84,559.59 525.93,561.00 525.56,561.00 C525.19,561.00 527.45,558.75 530.60,556.00 C533.74,553.25 537.17,551.00 538.21,551.00 C539.26,551.00 539.86,550.58 539.55,550.08 C539.23,549.57 539.77,548.96 540.74,548.73 C541.71,548.50 539.78,548.52 536.45,548.77 C531.09,549.19 530.10,548.97 527.90,546.87 C526.52,545.57 526.21,545.13 527.20,545.91 C530.16,548.22 537.38,547.53 542.74,544.43 C545.36,542.92 549.15,540.82 551.17,539.77 L 554.85 537.87 L 562.26 541.93 C566.34,544.17 570.64,546.00 571.84,546.00 C573.69,546.00 574.00,545.43 574.00,542.00 C574.00,537.20 574.72,537.08 581.67,540.73 C584.54,542.23 587.18,543.15 587.55,542.79 C587.92,542.42 587.63,539.84 586.92,537.05 C585.95,533.30 585.91,531.69 586.74,530.86 C588.51,529.09 590.54,530.46 594.93,536.41 C599.47,542.55 605.27,547.00 608.73,547.00 C609.98,547.00 611.00,546.89 611.00,546.75 C611.00,546.61 610.14,543.48 609.08,539.79 C606.58,531.03 600.88,519.43 595.27,511.70 C589.06,503.12 573.90,488.26 570.50,487.41 C567.21,486.58 563.14,488.66 561.21,492.16 L 559.92 494.50 L 560.21 492.04 C560.41,490.38 561.70,488.96 564.23,487.63 C566.98,486.18 567.70,485.34 566.95,484.43 C566.38,483.76 560.83,480.69 554.61,477.62 C538.89,469.86 529.48,467.70 511.00,467.63 C493.40,467.56 480.54,470.11 469.11,475.94 C465.59,477.74 465.00,478.50 464.98,481.27 C464.98,483.05 464.53,485.17 464.00,486.00 C463.29,487.10 463.03,486.36 463.02,483.25 C463.01,480.91 462.76,479.00 462.46,479.00 C462.16,479.00 460.08,479.94 457.84,481.08 C443.23,488.54 425.29,507.70 416.24,525.51 C413.63,530.65 410.00,541.69 410.00,544.50 C410.00,546.72 411.69,547.40 423.76,550.02 C428.45,551.04 434.41,553.90 431.97,553.96 C428.27,554.06 398.10,544.44 396.23,542.56 C396.06,542.39 397.05,539.25 398.43,535.59 C408.71,508.28 433.91,479.90 459.11,467.23 C476.10,458.69 490.89,455.04 508.62,455.02 C554.61,454.95 594.42,479.30 614.92,520.04 C620.49,531.10 624.44,542.01 623.26,543.05 C620.46,545.54 595.38,553.08 583.50,555.01 C579.65,555.64 574.87,556.62 572.87,557.20 C569.71,558.11 568.97,557.97 567.16,556.16 C558.20,547.20 541.06,547.98 529.80,557.87 ZM 466.21 663.37 L 466.44 663.48 C470.13,665.27 471.54,665.95 472.85,665.80 C473.69,665.71 474.48,665.28 475.80,664.59 C479.98,662.41 483.61,658.03 486.28,651.94 C488.53,646.83 489.23,646.14 495.18,643.30 C505.12,638.55 510.00,631.47 510.00,621.81 C510.00,614.21 508.25,612.41 500.00,611.52 C498.17,611.32 494.44,610.23 490.73,608.80 C488.62,607.99 487.71,606.72 486.87,603.39 C484.06,592.26 464.07,582.48 451.19,585.95 C448.82,586.59 445.06,588.76 442.82,590.78 L 438.75 594.46 L 433.80 589.08 C426.08,580.69 422.14,574.18 420.88,567.77 C420.15,564.10 419.24,562.00 418.37,562.00 C417.62,562.00 416.78,561.99 416.51,561.97 C416.24,561.95 414.04,561.09 411.61,560.05 L 407.19 558.15 L 406.61 560.33 C406.29,561.52 406.02,564.76 406.01,567.52 C406.00,572.50 406.08,572.62 414.25,580.66 C424.28,590.53 430.92,595.60 434.96,596.49 C437.99,597.16 438.00,597.19 438.00,604.04 C438.00,613.77 440.69,620.35 447.38,626.97 C450.32,629.89 453.47,632.68 454.37,633.19 C455.59,633.87 456.00,635.58 456.00,640.00 C456.00,646.98 457.65,655.63 459.56,658.65 C460.31,659.84 463.30,661.96 466.21,663.37 ZM 784.00 552.00 C780.00,553.28 757.18,552.91 749.00,551.42 C727.71,547.57 709.41,537.35 699.37,523.72 C693.29,515.45 681.21,491.47 683.64,492.46 C684.66,492.88 688.91,493.84 693.07,494.59 C701.38,496.08 718.77,501.84 725.96,505.48 C733.50,509.30 741.79,516.09 755.50,529.67 C769.12,543.15 779.42,550.93 783.86,551.10 L 786.50 551.20 ZM 511.73 622.40 C513.48,624.15 532.55,618.30 539.53,613.88 C543.54,611.34 544.00,610.66 543.98,607.27 C543.97,604.70 543.69,603.94 543.09,604.89 C541.34,607.66 525.77,602.89 521.85,598.39 C516.64,592.43 514.74,584.94 516.35,576.75 L 517.09 573.00 L 504.81 573.00 C498.05,573.00 484.92,572.28 475.63,571.41 L 475.04 571.35 C463.03,570.22 459.03,569.84 457.70,571.55 C457.03,572.40 457.02,573.77 457.02,575.83 L 457.02 576.03 C456.99,580.95 459.24,583.70 463.92,584.49 C468.99,585.34 479.71,591.04 483.29,594.79 C484.83,596.39 486.88,599.91 487.84,602.60 L 489.59 607.50 L 498.53 609.68 C508.21,612.04 511.00,614.11 511.00,618.94 C511.00,620.44 511.33,622.00 511.73,622.40 ZM 682.56 467.47 C677.28,472.16 672.61,476.00 672.17,476.00 C671.74,476.00 670.57,475.40 669.57,474.67 C667.28,473.00 667.63,469.67 671.77,453.50 C675.34,439.58 676.61,426.99 675.04,421.14 C674.44,418.92 673.78,413.15 673.56,408.31 C673.12,398.27 669.98,382.24 666.41,371.73 C663.32,362.64 664.45,363.86 671.33,377.00 C680.28,394.11 682.14,401.33 682.88,421.98 L 683.50 439.46 L 687.15 434.48 C689.16,431.74 691.60,427.82 692.57,425.77 C693.88,423.04 694.67,422.31 695.57,423.06 C696.46,423.80 697.41,423.05 699.10,420.29 C707.75,406.07 722.64,391.71 739.54,381.31 L 747.57 376.36 L 738.66 385.43 C730.30,393.93 713.76,414.29 707.58,423.67 C706.07,425.97 704.25,428.08 703.53,428.35 C702.03,428.93 690.50,443.61 687.03,449.37 L 684.69 453.23 L 687.10 452.52 C688.42,452.13 693.33,450.13 698.00,448.08 C700.82,446.85 702.69,446.00 704.63,445.44 C708.84,444.23 713.44,444.36 728.97,444.79 L 731.00 444.84 C744.00,445.20 742.18,446.17 724.00,448.58 C705.65,451.01 696.27,455.29 682.56,467.47 ZM 648.50 684.60 C652.30,686.28 652.40,686.28 656.40,684.61 C660.64,682.83 663.00,679.47 663.00,675.21 C663.00,665.10 652.26,660.22 644.77,666.92 C641.94,669.45 641.51,670.45 641.60,674.42 C641.70,679.54 643.69,682.48 648.50,684.60 ZM 493.00 560.94 C501.02,561.68 501.13,561.72 495.00,561.68 C479.97,561.57 460.44,559.70 445.09,556.91 C435.05,555.08 431.54,554.00 435.62,554.00 C436.70,554.00 440.81,551.05 444.75,547.45 L 451.92 540.91 L 454.91 542.45 C458.94,544.54 460.72,544.40 462.05,541.91 C462.66,540.77 463.41,540.08 463.72,540.39 C464.59,541.26 461.86,544.10 459.18,545.12 C457.17,545.89 456.89,546.49 457.45,548.77 C457.82,550.27 458.37,552.74 458.68,554.26 C458.98,555.78 459.61,557.26 460.08,557.55 C460.55,557.84 466.24,558.55 472.72,559.12 C479.20,559.70 488.33,560.51 493.00,560.94 ZM 495.98 662.96 C496.58,664.08 497.96,665.00 499.05,665.00 C502.33,665.00 513.00,661.74 513.00,660.74 C513.00,658.32 509.35,654.02 506.83,653.46 C503.30,652.69 500.00,653.71 500.00,655.57 C500.00,656.36 499.13,657.00 498.07,657.00 C495.66,657.00 494.53,660.25 495.98,662.96 ZM 606.32 687.99 C609.78,689.39 610.93,689.16 613.55,686.55 C616.52,683.57 616.70,679.70 614.00,677.00 C611.30,674.30 607.43,674.48 604.45,677.45 C600.80,681.11 601.69,686.13 606.32,687.99 ZM 437.37 576.23 C440.03,578.38 445.33,578.51 447.04,576.45 C448.10,575.17 447.98,574.44 446.31,572.20 C443.77,568.78 440.39,567.03 436.25,567.01 C433.96,567.00 433.00,567.46 433.00,568.57 C433.00,570.86 434.93,574.26 437.37,576.23 ZM 609.58 570.82 C611.55,573.12 613.57,575.00 614.08,575.00 C615.57,575.00 614.39,560.06 612.77,558.43 C612.46,558.13 610.54,558.58 608.50,559.44 C605.80,560.56 604.95,561.43 605.39,562.58 C605.73,563.45 606.00,564.72 606.00,565.40 C606.00,566.08 607.61,568.52 609.58,570.82 ZM 568.31 696.56 C569.85,697.90 571.54,699.00 572.06,699.00 C573.88,699.00 577.00,694.97 577.00,692.62 C577.00,687.28 569.75,686.32 567.03,691.31 C565.56,694.00 565.62,694.22 568.31,696.56 ZM 571.02 554.37 C571.00,555.82 571.50,556.10 573.25,555.63 C574.49,555.30 576.30,555.02 577.27,555.01 C578.61,555.00 578.93,554.39 578.59,552.52 C577.86,548.51 577.12,547.87 574.69,549.15 C572.00,550.56 571.04,551.93 571.02,554.37 Z" fill="rgb(2,65,107)"/>
<path d="M 364.50 713.41 C353.34,711.09 340.10,704.04 331.40,695.77 C315.30,680.48 308.62,661.47 311.06,637.90 C312.82,620.88 313.33,619.61 341.26,562.50 C351.04,542.50 364.53,514.71 378.22,486.42 C375.38,492.49 373.43,497.00 373.67,497.00 C373.96,497.00 375.39,496.18 376.85,495.18 C384.37,490.03 425.49,472.80 446.26,466.11 C457.00,462.64 475.91,457.90 479.33,457.81 C480.52,457.78 485.04,457.14 489.36,456.38 C493.11,455.72 498.01,455.31 503.23,455.14 C487.82,455.85 474.35,459.57 459.11,467.23 C433.91,479.90 408.71,508.28 398.43,535.59 C397.05,539.25 396.06,542.39 396.23,542.56 C396.38,542.72 396.72,542.92 397.21,543.16 C388.10,539.22 381.83,535.51 373.94,529.45 C367.07,524.17 364.35,523.44 364.85,527.00 C367.04,542.41 402.57,558.95 450.50,566.87 C451.36,567.01 452.22,567.15 453.08,567.28 C435.59,564.68 420.30,560.96 405.71,555.87 C399.22,553.60 393.65,552.02 393.33,552.34 C392.09,553.57 391.79,579.84 392.91,588.28 C398.67,631.46 427.81,667.07 470.90,683.60 L 478.30 686.43 L 474.90 687.82 C454.20,696.27 416.05,693.33 384.86,680.87 C363.45,672.32 350.03,663.82 334.62,649.05 L 326.74 641.50 L 327.43 648.00 C329.24,664.98 337.21,680.65 349.08,690.57 C354.62,695.19 366.93,701.35 373.97,703.01 C376.97,703.72 383.05,704.63 387.47,705.02 C391.89,705.42 451.30,705.67 519.50,705.59 C634.18,705.45 643.94,705.30 649.40,703.69 C670.45,697.47 685.82,682.60 691.96,662.50 C694.30,654.87 695.97,636.00 694.32,636.00 C693.81,636.00 691.57,637.79 689.19,640.09 C691.43,637.20 691.67,633.89 690.02,629.57 C688.58,625.76 683.26,622.79 679.00,623.42 C670.49,624.66 666.81,635.97 672.92,642.08 C674.15,643.30 675.49,644.16 676.91,644.65 C675.20,644.62 674.00,644.80 674.00,645.13 C674.00,647.19 643.68,660.25 631.22,663.56 C613.52,668.26 582.02,671.35 579.32,668.65 C579.09,668.42 581.12,666.62 583.82,664.63 C589.48,660.48 599.99,649.59 605.83,641.83 C618.40,625.12 626.31,602.55 627.60,579.74 C628.11,570.59 626.96,553.63 625.74,552.41 C625.49,552.15 621.95,553.22 617.89,554.79 C617.29,555.02 616.63,555.26 615.94,555.51 C629.58,550.40 642.48,543.10 649.12,536.38 C654.11,531.33 654.46,530.63 655.06,524.75 C655.90,516.51 654.30,513.00 649.72,513.01 C645.33,513.02 635.28,514.68 624.75,517.13 C615.35,519.32 614.84,519.86 617.48,524.95 L 618.95 527.81 L 625.23 525.85 C628.68,524.78 634.99,523.63 639.25,523.30 C648.78,522.57 649.24,523.69 642.44,530.96 C639.05,534.58 631.80,539.13 623.03,543.23 C623.12,543.17 623.19,543.11 623.26,543.05 C624.44,542.01 620.49,531.10 614.92,520.04 C606.40,503.10 594.54,489.00 580.28,478.31 L 584.04 480.82 L 593.84 478.00 C607.86,473.96 624.41,470.73 628.88,471.16 C632.58,471.51 632.70,471.43 631.95,469.01 C631.73,468.30 629.09,462.56 625.05,453.98 C629.65,463.64 633.50,471.75 635.49,476.00 C639.50,484.52 649.58,505.38 657.89,522.34 C666.20,539.31 673.00,553.32 673.00,553.47 C673.00,553.63 679.72,567.49 687.92,584.28 C707.29,623.87 708.36,627.11 708.43,646.00 C708.48,658.37 708.16,661.53 706.25,667.50 C699.52,688.51 684.69,703.31 661.87,711.77 L 654.50 714.50 L 513.00 714.68 C392.66,714.83 370.45,714.64 364.50,713.41 ZM 529.80 557.87 C534.70,553.57 540.71,550.99 546.67,550.19 C540.50,551.07 534.24,553.88 529.08,558.55 L 524.93 562.29 L 499.22 561.68 L 498.92 561.67 C500.24,561.62 498.44,561.44 493.00,560.94 C488.33,560.51 479.20,559.70 472.72,559.12 C466.24,558.55 460.55,557.84 460.08,557.55 C459.61,557.26 458.98,555.78 458.68,554.26 C458.37,552.74 457.82,550.27 457.45,548.77 C456.89,546.49 457.17,545.89 459.18,545.12 C461.86,544.10 464.59,541.26 463.72,540.39 C463.41,540.08 462.66,540.77 462.05,541.91 C461.57,542.79 461.05,543.38 460.38,543.68 C461.23,543.23 463.00,540.59 464.37,537.68 C468.16,529.67 474.79,525.03 482.47,525.01 C483.55,525.00 485.65,523.58 487.13,521.85 C489.73,518.80 489.77,518.56 488.46,514.20 C486.96,509.22 480.65,502.00 477.80,502.00 C476.81,502.00 476.00,501.64 476.00,501.20 C476.00,499.87 469.63,498.00 465.11,498.00 C459.35,498.00 457.23,500.11 458.80,504.28 C460.72,509.36 457.35,511.48 451.57,508.85 C448.58,507.49 447.50,504.81 448.89,502.21 C449.44,501.18 452.84,497.75 456.44,494.59 C462.85,488.96 463.00,488.72 463.00,483.92 C463.00,481.21 462.76,479.00 462.46,479.00 C462.76,479.00 463.01,480.91 463.02,483.25 C463.03,486.36 463.29,487.10 464.00,486.00 C464.53,485.17 464.98,483.05 464.98,481.27 C464.99,481.05 464.99,480.84 465.00,480.64 C465.02,484.22 466.62,486.75 469.98,488.49 C474.05,490.60 475.20,490.42 479.50,487.00 C483.26,484.01 488.04,483.10 490.80,484.86 C491.83,485.51 491.86,486.22 490.92,488.27 C489.36,491.70 490.46,495.61 493.97,499.13 C496.31,501.46 497.71,502.00 501.47,502.00 C508.35,502.00 511.76,499.78 514.53,493.52 C516.50,489.08 517.43,488.06 520.10,487.48 C522.93,486.86 523.67,487.19 526.40,490.30 C532.21,496.92 536.50,496.94 535.80,490.34 C535.54,487.90 535.88,487.46 538.25,487.18 C539.76,487.01 541.00,487.35 541.00,487.93 C541.00,490.02 545.14,488.95 547.52,486.25 C549.14,484.40 549.95,482.26 549.97,479.74 C550.00,476.55 549.50,475.67 546.79,474.02 L 546.76 474.00 C549.23,475.04 551.82,476.24 554.61,477.62 C560.83,480.69 566.38,483.76 566.95,484.43 C567.70,485.34 566.98,486.18 564.23,487.63 C561.70,488.96 560.41,490.38 560.21,492.04 L 559.92 494.50 L 561.21 492.16 C561.32,491.95 561.44,491.75 561.57,491.56 C560.99,493.24 561.94,495.50 564.29,499.99 C568.77,508.58 568.92,511.05 565.13,514.23 C562.93,516.09 560.91,516.70 556.46,516.88 C547.90,517.23 544.37,519.02 543.07,523.67 C542.49,525.78 542.01,528.14 542.01,528.92 C542.00,531.57 538.78,534.00 535.30,534.00 C531.32,534.00 526.44,536.29 525.15,538.76 C523.62,541.68 525.89,545.66 529.62,546.98 C528.66,546.76 527.83,546.40 527.20,545.91 C526.21,545.13 526.52,545.57 527.90,546.87 C530.10,548.97 531.09,549.19 536.45,548.77 C539.78,548.52 541.71,548.50 540.74,548.73 C539.77,548.96 539.23,549.57 539.55,550.08 C539.86,550.58 539.26,551.00 538.21,551.00 C537.17,551.00 533.74,553.25 530.60,556.00 C527.45,558.75 525.19,561.00 525.56,561.00 C525.93,561.00 527.84,559.59 529.80,557.87 ZM 511.73 622.40 C511.33,622.00 511.00,620.44 511.00,618.94 C511.00,614.11 508.21,612.04 498.53,609.68 L 489.59 607.50 L 487.84 602.60 C486.88,599.91 484.83,596.39 483.29,594.79 C479.71,591.04 468.99,585.34 463.92,584.49 C459.24,583.70 456.99,580.95 457.02,576.03 L 457.02 575.83 C457.02,573.77 457.03,572.40 457.70,571.55 C459.03,569.84 463.03,570.22 475.04,571.35 L 475.63 571.41 C484.92,572.28 498.05,573.00 504.81,573.00 L 517.09 573.00 L 516.35 576.75 C514.74,584.94 516.64,592.43 521.85,598.39 C525.77,602.89 541.34,607.66 543.09,604.89 C543.69,603.94 543.97,604.70 543.98,607.27 C544.00,610.66 543.54,611.34 539.53,613.88 C532.55,618.30 513.48,624.15 511.73,622.40 ZM 507.38 353.91 C497.48,356.66 487.92,354.10 480.81,346.81 C476.16,342.03 473.00,335.01 473.00,329.43 C473.00,325.41 476.22,317.19 479.23,313.54 C489.96,300.51 511.94,303.26 520.25,318.67 C524.02,325.65 524.68,331.44 522.49,338.39 C520.39,345.08 513.42,352.23 507.38,353.91 ZM 416.34 467.59 C410.20,470.01 404.69,472.00 404.09,472.00 C401.98,472.00 403.03,466.25 405.85,462.36 C409.45,457.40 411.74,455.91 420.84,452.62 C437.32,446.68 464.31,440.91 493.83,437.03 C509.80,434.92 513.02,435.22 512.98,438.79 C512.95,442.13 511.35,442.77 497.50,444.96 C474.60,448.59 439.97,458.24 416.34,467.59 ZM 535.93 288.25 C529.43,291.56 519.39,290.15 513.64,285.12 C508.69,280.79 506.47,270.18 509.07,263.32 C514.11,250.01 534.70,248.04 542.68,260.10 C545.12,263.78 545.50,265.33 545.50,271.58 C545.50,278.15 545.22,279.17 542.43,282.66 C540.74,284.77 537.81,287.29 535.93,288.25 ZM 550.14 446.43 C537.97,452.72 523.91,444.37 523.79,430.78 C523.70,421.09 529.74,414.12 538.98,413.23 C551.16,412.06 561.43,423.92 558.05,435.25 C556.44,440.63 553.60,444.64 550.14,446.43 ZM 555.47 378.72 C549.84,381.91 545.43,381.56 538.83,377.39 C534.10,374.41 531.65,369.83 531.63,363.92 C531.60,354.64 538.33,348.00 547.78,348.00 C557.81,348.00 564.00,354.19 564.00,364.22 C564.00,370.87 561.34,375.40 555.47,378.72 ZM 516.47 409.72 C511.48,412.54 507.68,412.58 502.17,409.85 C491.16,404.40 489.06,390.69 498.01,382.61 C501.64,379.33 502.54,379.00 507.86,379.00 C512.28,379.00 514.52,379.55 517.08,381.27 C528.11,388.71 527.80,403.30 516.47,409.72 ZM 360.84 583.48 C364.32,585.36 372.35,585.39 375.95,583.52 C380.05,581.40 383.00,576.11 382.99,570.88 C382.98,559.70 371.15,553.42 360.92,559.16 C351.87,564.25 351.82,578.58 360.84,583.48 ZM 636.42 625.11 C641.28,628.08 645.62,627.58 649.60,623.60 C652.38,620.82 653.00,619.44 653.00,616.03 C653.00,610.83 651.75,608.44 648.02,606.51 C635.19,599.87 624.12,617.62 636.42,625.11 ZM 403.50 508.84 C404.60,509.44 406.91,509.95 408.63,509.97 C411.24,510.00 412.43,509.12 415.88,504.66 C418.15,501.72 420.00,498.52 420.00,497.56 C420.00,496.59 418.47,494.27 416.60,492.40 C413.74,489.54 412.48,489.00 408.71,489.00 C405.13,489.00 403.58,489.59 401.11,491.90 C398.54,494.30 398.00,495.56 398.02,499.15 C398.05,503.65 399.84,506.83 403.50,508.84 ZM 589.01 453.49 C578.61,458.87 568.72,446.13 576.92,437.92 C582.09,432.76 590.23,434.32 593.00,441.01 C594.84,445.45 592.91,451.48 589.01,453.49 ZM 352.91 616.72 C355.27,618.53 361.46,618.26 363.95,616.24 C365.28,615.17 366.34,612.90 366.67,610.42 C367.37,605.20 364.25,601.21 358.80,600.34 C355.60,599.83 354.68,600.17 352.05,602.80 C347.81,607.04 348.19,613.09 352.91,616.72 ZM 551.89 511.00 C556.75,513.57 559.21,513.46 561.95,510.56 C564.60,507.73 564.32,505.26 560.75,499.94 C555.25,491.76 543.30,497.07 547.02,506.05 C547.74,507.79 549.83,509.92 551.89,511.00 ZM 645.32 571.99 C646.52,572.48 648.31,572.90 649.30,572.94 C651.92,573.03 656.00,568.50 656.00,565.50 C656.00,559.40 647.29,555.71 643.00,560.00 C639.55,563.45 640.86,570.20 645.32,571.99 ZM 485.65 325.17 C486.70,326.33 488.70,327.00 491.08,327.00 C495.71,327.00 499.00,323.42 499.00,318.40 C499.00,314.52 496.93,313.00 491.64,313.00 C485.49,313.00 481.67,320.77 485.65,325.17 ZM 622.95 655.16 C628.19,659.41 635.00,655.94 635.00,649.02 C635.00,644.60 632.39,642.00 627.95,642.00 C621.87,642.00 618.31,651.40 622.95,655.16 ZM 531.50 522.26 C533.70,522.48 535.60,522.74 535.72,522.83 C536.30,523.27 539.00,516.86 539.00,515.05 C539.00,511.78 535.47,509.00 531.33,509.00 C526.68,509.00 524.00,511.38 524.00,515.50 C524.00,519.56 526.42,521.74 531.50,522.26 ZM 378.17 630.69 C382.46,635.25 389.33,632.36 389.33,626.00 C389.33,622.04 386.44,619.00 382.67,619.00 C376.40,619.00 373.73,625.95 378.17,630.69 ZM 495.98 662.96 C494.53,660.25 495.66,657.00 498.07,657.00 C499.13,657.00 500.00,656.36 500.00,655.57 C500.00,653.71 503.30,652.69 506.83,653.46 C509.35,654.02 513.00,658.32 513.00,660.74 C513.00,661.74 502.33,665.00 499.05,665.00 C497.96,665.00 496.58,664.08 495.98,662.96 ZM 613.65 497.17 C615.97,499.73 620.52,499.52 622.44,496.78 C624.54,493.79 624.40,491.40 622.00,489.00 C616.46,483.46 608.39,491.36 613.65,497.17 ZM 658.66 596.94 C664.39,601.45 671.23,594.23 666.35,588.83 C664.32,586.59 661.18,586.48 658.22,588.56 C655.20,590.67 655.39,594.38 658.66,596.94 ZM 411.57 674.43 C413.43,676.29 418.10,676.50 419.80,674.80 C420.46,674.14 421.00,672.21 421.00,670.50 C421.00,666.76 419.44,665.00 416.13,665.00 C410.98,665.00 408.10,670.95 411.57,674.43 ZM 491.22 539.44 C494.05,541.43 496.44,541.42 498.43,539.43 C500.29,537.57 500.50,532.90 498.80,531.20 C496.81,529.21 492.27,529.77 490.56,532.22 C488.40,535.30 488.61,537.61 491.22,539.44 ZM 519.20 266.80 C522.22,269.82 529.00,266.87 529.00,262.55 C529.00,259.71 527.17,258.00 524.13,258.00 C519.31,258.00 516.11,263.71 519.20,266.80 ZM 568.31 696.56 C565.62,694.22 565.56,694.00 567.03,691.31 C569.75,686.32 577.00,687.28 577.00,692.62 C577.00,694.97 573.88,699.00 572.06,699.00 C571.54,699.00 569.85,697.90 568.31,696.56 ZM 541.75 361.92 C542.84,362.55 543.34,362.87 543.86,362.88 C544.33,362.89 544.82,362.63 545.79,362.11 C545.87,362.07 545.96,362.02 546.04,361.98 C550.44,359.63 550.54,353.00 546.19,353.00 C541.21,353.00 537.89,359.67 541.75,361.92 ZM 501.20 391.80 C504.74,395.34 511.36,390.41 509.00,386.00 C507.70,383.57 504.31,383.41 501.83,385.65 C499.72,387.56 499.47,390.07 501.20,391.80 ZM 533.04 425.55 C535.79,428.86 542.44,425.96 541.80,421.73 C541.33,418.56 538.59,417.34 535.58,418.96 C532.52,420.59 531.38,423.55 533.04,425.55 ZM 381.54 657.66 C385.15,660.29 389.00,658.62 389.00,654.42 C389.00,649.27 381.63,648.62 380.37,653.67 C379.88,655.61 380.19,656.67 381.54,657.66 ZM 571.02 554.37 C571.04,551.93 572.00,550.56 574.69,549.15 C577.12,547.87 577.86,548.51 578.59,552.52 C578.93,554.39 578.61,555.00 577.27,555.01 C576.30,555.02 574.49,555.30 573.25,555.63 C571.50,556.10 571.00,555.82 571.02,554.37 ZM 560.12 466.20 C546.41,459.78 531.29,455.99 515.32,455.18 C520.51,455.38 525.43,455.82 529.29,456.49 C540.72,458.49 550.48,461.51 560.12,466.20 ZM 590.46 553.61 C586.71,554.52 583.04,555.35 579.83,556.00 L 569.16 558.16 L 567.16 556.16 C568.97,557.97 569.71,558.11 572.87,557.20 C574.87,556.62 579.65,555.64 583.50,555.01 C585.50,554.69 587.88,554.20 590.46,553.61 ZM 563.81 635.20 C564.10,632.76 564.89,631.26 566.72,628.29 C569.05,624.52 569.68,623.44 569.27,621.48 C569.68,623.41 569.12,624.43 567.09,627.79 C565.73,630.03 564.38,633.12 563.81,635.20 ZM 468.74 560.16 C459.68,559.36 451.71,558.21 442.98,556.56 C438.37,555.68 435.45,554.99 434.41,554.55 C435.63,555.04 439.26,555.85 445.09,556.91 C452.34,558.23 460.53,559.34 468.74,560.16 ZM 487.18 469.69 C484.60,470.30 481.91,471.07 478.86,472.04 C476.51,472.80 474.49,473.51 472.77,474.21 C477.25,472.25 481.99,470.75 487.18,469.69 ZM 436.97 322.75 L 437.00 227.00 L 437.00 294.87 C437.00,305.70 436.99,314.92 436.97,322.75 ZM 579.84 647.14 C584.06,643.44 587.79,639.50 590.95,635.46 C589.82,636.95 588.62,638.44 587.36,639.91 C585.58,641.98 582.79,644.61 579.84,647.14 ZM 604.14 583.01 C605.94,584.68 608.41,585.93 610.41,586.00 C607.86,585.94 605.86,585.04 604.14,583.01 ZM 616.79 545.97 C616.44,546.12 616.09,546.26 615.73,546.40 C612.99,547.50 607.36,549.20 600.94,550.93 C606.76,549.31 612.54,547.51 616.79,545.97 ZM 681.68 644.95 C683.30,644.62 684.94,643.86 686.52,642.67 C684.58,644.44 683.56,644.95 681.68,644.95 ZM 531.35 469.22 C525.39,468.23 518.42,467.67 511.00,467.63 C510.44,467.63 509.88,467.63 509.34,467.63 C509.89,467.63 510.44,467.63 511.00,467.63 C519.09,467.66 525.45,468.09 531.35,469.22 ZM 609.03 539.62 C607.81,536.02 606.21,531.76 604.79,528.43 C606.56,532.32 608.04,536.18 609.03,539.62 ZM 598.79 517.03 C595.95,512.49 592.65,508.18 588.49,503.56 C591.14,506.47 593.55,509.32 595.27,511.70 C596.45,513.33 597.63,515.13 598.79,517.03 ZM 468.57 476.22 C466.42,477.49 465.29,478.74 465.05,480.05 C465.26,478.34 466.06,477.55 468.57,476.22 ZM 460.24 543.74 C459.04,544.18 457.41,543.75 454.91,542.45 L 454.08 542.02 L 455.34 542.62 C457.21,543.52 459.38,544.00 460.24,543.74 ZM 573.40 489.14 C571.64,487.94 570.21,487.34 568.89,487.23 C569.44,487.22 569.98,487.28 570.50,487.41 C571.12,487.57 572.13,488.18 573.40,489.14 ZM 539.23 546.04 C540.45,545.55 541.71,544.94 543.00,544.22 C545.47,542.82 549.15,540.82 551.17,539.77 C549.15,540.82 545.36,542.92 542.74,544.43 C541.63,545.07 540.44,545.61 539.23,546.04 ZM 563.95 646.44 C564.16,648.37 564.41,650.24 564.68,651.77 C564.36,650.37 564.12,648.60 563.95,646.44 ZM 591.33 383.36 C589.07,378.59 587.42,375.10 586.67,373.50 L 582.50 364.50 L 587.15 374.50 C587.92,376.15 589.39,379.26 591.33,383.36 ZM 599.05 571.16 C598.06,567.50 596.96,563.81 596.60,562.95 C596.96,563.81 598.05,567.43 599.02,571.00 C599.40,572.38 599.84,573.86 600.27,575.24 C599.86,574.01 599.46,572.65 599.05,571.16 Z" fill="rgb(7,163,240)"/>
<path d="M 338.73 477.95 C339.54,476.27 340.00,475.17 340.00,474.82 C340.00,474.21 336.51,477.13 332.25,481.30 C318.24,495.04 301.66,506.69 283.53,515.53 C270.57,521.84 268.00,522.71 268.00,520.74 C268.00,517.65 274.33,497.11 278.65,486.16 C286.42,466.47 299.80,441.01 312.86,421.03 C322.47,406.34 336.06,387.78 341.38,382.09 C349.56,373.33 339.75,381.44 328.47,392.75 C303.28,418.02 281.83,447.46 268.91,474.50 C262.67,487.57 256.53,505.02 255.49,512.67 C254.56,519.51 254.00,521.12 252.82,520.39 C252.19,520.00 251.99,520.48 252.32,521.62 C252.78,523.23 253.24,526.20 253.52,528.83 C252.87,525.23 251.62,520.77 250.51,519.00 C242.96,506.98 238.66,482.64 240.88,464.50 C243.66,441.75 251.22,424.85 266.84,406.49 C287.87,381.76 325.78,361.74 361.17,356.68 C365.81,356.01 365.87,356.18 366.63,370.87 C368.35,403.94 360.05,436.67 338.73,477.95 ZM 253.09 642.83 C249.57,641.25 246.10,639.18 245.37,638.23 C244.49,637.07 244.05,636.93 244.03,637.81 C244.01,638.53 243.54,638.84 242.98,638.49 C242.42,638.14 242.22,637.45 242.54,636.94 C242.85,636.44 242.48,636.26 241.71,636.56 C240.95,636.85 239.69,636.28 238.91,635.30 C237.60,633.63 237.64,633.60 239.50,634.95 C241.33,636.27 241.37,636.25 240.00,634.76 C239.18,633.87 237.86,632.99 237.08,632.82 C235.29,632.42 232.00,629.31 232.00,628.03 C232.00,627.49 230.76,626.41 229.25,625.63 C227.74,624.85 224.89,622.70 222.93,620.85 C220.96,619.01 218.01,616.38 216.37,615.00 C214.73,613.62 213.89,612.72 214.49,613.00 C215.10,613.28 214.62,612.60 213.42,611.50 C212.23,610.40 210.13,607.70 208.75,605.50 C207.38,603.30 204.96,600.07 203.37,598.33 C198.94,593.44 198.35,592.61 195.56,587.38 C194.12,584.70 192.09,581.15 191.05,579.50 C190.00,577.85 189.11,575.77 189.07,574.88 C189.03,573.98 187.89,571.27 186.54,568.86 C183.37,563.18 177.45,542.58 176.05,532.34 C174.86,523.69 174.47,498.50 175.48,495.89 C175.83,495.01 177.25,493.67 178.65,492.92 C180.89,491.72 181.35,491.76 182.45,493.26 C183.14,494.20 184.06,494.64 184.51,494.23 C184.96,493.83 184.98,494.09 184.56,494.82 C183.96,495.86 183.40,495.77 181.86,494.37 C180.40,493.05 180.06,492.98 180.48,494.10 C180.80,494.91 185.88,497.88 191.78,500.69 C211.80,510.24 227.65,522.97 238.22,538.00 C244.46,546.86 252.14,562.54 255.87,574.00 C258.59,582.38 262.97,599.16 262.99,601.27 C263.01,602.78 249.30,591.33 238.13,580.52 C215.84,558.92 197.44,533.64 184.41,506.68 C181.82,501.33 179.52,497.15 179.28,497.39 C179.05,497.62 179.54,499.15 180.39,500.78 C181.23,502.41 181.68,503.99 181.38,504.29 C181.08,504.59 181.37,505.83 182.03,507.05 C182.68,508.28 183.44,510.68 183.70,512.39 C184.24,515.86 185.66,518.00 187.41,518.00 C188.05,518.00 188.65,518.97 188.74,520.16 C188.83,521.35 189.31,522.59 189.80,522.91 C190.30,523.23 191.29,525.30 192.01,527.50 C192.72,529.70 194.54,533.97 196.05,537.00 C197.55,540.03 200.49,546.78 202.57,552.00 C208.56,567.05 219.20,587.54 227.31,599.65 C235.35,611.65 254.92,635.87 256.40,635.64 C256.90,635.56 258.36,637.03 259.65,638.90 C264.28,645.60 262.13,646.89 253.09,642.83 ZM 563.81 635.20 C564.38,633.12 565.73,630.03 567.09,627.79 C569.12,624.43 569.68,623.41 569.27,621.48 C569.12,620.76 568.83,619.92 568.44,618.79 C567.61,616.43 565.41,611.12 563.55,607.00 C561.69,602.88 559.90,598.66 559.57,597.64 C558.89,595.51 558.40,595.61 549.00,599.64 C543.91,601.82 541.03,602.41 535.76,602.34 C529.55,602.27 528.68,601.98 524.60,598.63 C518.80,593.88 516.50,588.10 517.31,580.26 C517.64,577.11 518.38,574.37 518.95,574.18 C522.31,573.06 518.60,572.34 506.26,571.76 C513.23,571.87 519.46,571.62 529.17,570.97 C570.71,568.19 603.99,561.31 626.49,551.06 C623.09,552.66 619.54,554.16 615.94,555.51 L 615.94 555.51 C611.93,556.95 606.63,558.63 603.22,559.51 C597.42,561.02 596.07,561.72 596.59,562.95 L 596.60 562.95 C596.96,563.81 598.06,567.50 599.05,571.16 C599.46,572.65 599.86,574.01 600.27,575.24 C600.97,577.43 601.65,579.37 602.09,580.33 C602.52,581.26 603.25,582.19 604.14,583.01 C605.86,585.04 607.86,585.94 610.41,586.00 C611.96,586.00 612.17,586.71 611.74,589.88 C611.27,593.37 609.77,596.90 604.67,606.50 C603.80,608.15 602.17,612.65 601.07,616.50 C599.40,622.32 595.83,628.97 590.95,635.46 C587.79,639.50 584.06,643.44 579.84,647.14 L 579.84 647.14 C574.42,651.77 568.45,656.04 567.19,655.80 C566.08,655.58 565.25,654.28 564.68,651.77 C564.41,650.24 564.16,648.37 563.95,646.44 C563.84,644.97 563.76,643.33 563.71,641.50 C563.64,638.63 563.63,636.73 563.81,635.20 ZM 466.21 663.37 C463.30,661.96 460.31,659.84 459.56,658.65 C457.65,655.63 456.00,646.98 456.00,640.00 C456.00,635.58 455.59,633.87 454.37,633.19 C453.47,632.68 450.32,629.89 447.38,626.97 C440.69,620.35 438.00,613.77 438.00,604.04 C438.00,597.19 437.99,597.16 434.96,596.49 C430.92,595.60 424.28,590.53 414.25,580.66 C406.08,572.62 406.00,572.50 406.01,567.52 C406.02,564.76 406.29,561.52 406.61,560.33 L 407.19 558.15 L 411.61 560.05 C414.04,561.09 416.24,561.95 416.51,561.97 C416.78,561.99 417.62,562.00 418.37,562.00 C419.24,562.00 420.15,564.10 420.88,567.77 C422.14,574.18 426.08,580.69 433.80,589.08 L 438.75 594.46 L 442.82 590.78 C445.06,588.76 448.82,586.59 451.19,585.95 C464.07,582.48 484.06,592.26 486.87,603.39 C487.71,606.72 488.62,607.99 490.73,608.80 C494.44,610.23 498.17,611.32 500.00,611.52 C508.25,612.41 510.00,614.21 510.00,621.81 C510.00,631.47 505.12,638.55 495.18,643.30 C489.23,646.14 488.53,646.83 486.28,651.94 C483.61,658.03 479.98,662.41 475.80,664.59 C474.48,665.28 473.69,665.71 472.85,665.80 C471.54,665.95 470.13,665.27 466.44,663.48 ZM 468.74 560.16 C469.13,560.20 469.53,560.24 469.92,560.28 C455.74,559.16 443.92,557.15 430.58,553.80 C431.20,553.91 431.67,553.97 431.97,553.96 C434.41,553.90 428.45,551.04 423.76,550.02 C411.69,547.40 410.00,546.72 410.00,544.50 C410.00,541.69 413.63,530.65 416.24,525.51 C425.29,507.70 443.23,488.54 457.84,481.08 C460.08,479.94 462.16,479.00 462.46,479.00 C462.76,479.00 463.00,481.21 463.00,483.92 C463.00,488.72 462.85,488.96 456.44,494.59 C452.84,497.75 449.44,501.18 448.89,502.21 C447.50,504.81 448.58,507.49 451.57,508.85 C457.35,511.48 460.72,509.36 458.80,504.28 C457.23,500.11 459.35,498.00 465.11,498.00 C469.63,498.00 476.00,499.87 476.00,501.20 C476.00,501.64 476.81,502.00 477.80,502.00 C480.65,502.00 486.96,509.22 488.46,514.20 C489.77,518.56 489.73,518.80 487.13,521.85 C485.65,523.58 483.55,525.00 482.47,525.01 C474.79,525.03 468.16,529.67 464.37,537.68 C463.00,540.59 461.23,543.23 460.38,543.68 C460.34,543.70 460.29,543.72 460.24,543.74 C459.38,544.00 457.21,543.52 455.34,542.62 L 454.08 542.02 L 451.92 540.91 L 444.75 547.45 C440.81,551.05 436.70,554.00 435.62,554.00 C433.91,554.00 433.53,554.19 434.41,554.55 C435.45,554.99 438.37,555.68 442.98,556.56 C451.71,558.21 459.68,559.36 468.74,560.16 ZM 706.70 427.50 C704.60,427.84 703.29,428.43 701.16,430.67 C702.33,429.34 703.19,428.48 703.53,428.35 C704.25,428.08 706.07,425.97 707.58,423.67 C713.76,414.29 730.30,393.93 738.66,385.43 L 747.57 376.36 L 739.54 381.31 C722.64,391.71 707.75,406.07 699.10,420.29 C697.41,423.05 696.46,423.80 695.57,423.06 C694.67,422.31 693.88,423.04 692.57,425.77 C692.20,426.55 691.62,427.60 690.93,428.75 C692.69,425.19 693.49,421.42 694.03,415.69 C695.76,397.38 701.62,386.66 715.68,376.01 C728.66,366.18 741.96,361.39 759.25,360.32 L 769.00 359.71 L 769.00 362.77 C769.00,367.62 766.37,379.97 764.00,386.30 C760.77,394.89 752.77,406.18 745.72,412.10 C735.93,420.32 725.36,424.49 706.70,427.50 ZM 609.03 539.62 C609.05,539.68 609.07,539.73 609.08,539.79 C610.14,543.48 611.00,546.61 611.00,546.75 C611.00,546.89 609.98,547.00 608.73,547.00 C605.27,547.00 599.47,542.55 594.93,536.41 C590.54,530.46 588.51,529.09 586.74,530.86 C585.91,531.69 585.95,533.30 586.92,537.05 C587.63,539.84 587.92,542.42 587.55,542.79 C587.18,543.15 584.54,542.23 581.67,540.73 C574.72,537.08 574.00,537.20 574.00,542.00 C574.00,545.43 573.69,546.00 571.84,546.00 C570.64,546.00 566.34,544.17 562.26,541.93 L 554.85 537.87 L 551.17 539.77 C549.15,540.82 545.47,542.82 543.00,544.22 C541.71,544.94 540.45,545.55 539.23,546.04 C535.83,547.24 532.22,547.59 529.62,546.98 C525.89,545.66 523.62,541.68 525.15,538.76 C526.44,536.29 531.32,534.00 535.30,534.00 C538.78,534.00 542.00,531.57 542.01,528.92 C542.01,528.14 542.49,525.78 543.07,523.67 C544.37,519.02 547.90,517.23 556.46,516.88 C560.91,516.70 562.93,516.09 565.13,514.23 C568.92,511.05 568.77,508.58 564.29,499.99 C561.94,495.50 560.99,493.24 561.57,491.56 C563.27,488.95 566.18,487.27 568.89,487.23 C570.21,487.34 571.64,487.94 573.40,489.14 C577.18,492.00 583.31,497.88 588.49,503.56 L 588.49 503.56 C592.65,508.18 595.95,512.49 598.79,517.03 L 598.79 517.03 C600.95,520.59 603.02,524.53 604.79,528.43 C606.21,531.76 607.81,536.02 609.03,539.62 ZM 683.03 426.44 L 682.88 421.98 C682.14,401.33 680.28,394.11 671.33,377.00 C664.45,363.86 663.32,362.64 666.41,371.73 C669.98,382.24 673.12,398.27 673.56,408.31 C673.73,412.17 674.19,416.63 674.67,419.40 L 669.00 413.32 C660.96,404.71 656.63,397.53 652.82,386.45 C648.91,375.11 648.10,363.53 650.43,352.05 C652.12,343.72 656.76,331.88 658.85,330.59 C661.89,328.71 673.81,338.94 680.87,349.49 C688.46,360.85 690.52,367.97 690.41,382.50 C690.32,393.70 690.07,395.16 686.66,404.50 C683.22,413.90 683.01,415.03 683.03,426.44 ZM 784.00 552.00 L 786.50 551.20 L 783.86 551.10 C779.42,550.93 769.12,543.15 755.50,529.67 C741.79,516.09 733.50,509.30 725.96,505.48 C718.77,501.84 701.38,496.08 693.07,494.59 C688.91,493.84 684.66,492.88 683.64,492.46 C682.43,491.97 684.83,497.69 688.30,504.58 C684.62,497.64 681.60,491.43 681.79,490.75 C681.91,490.34 681.52,490.00 680.94,490.00 C680.36,490.00 680.16,489.55 680.50,489.00 C680.84,488.45 680.67,488.00 680.12,488.00 C679.57,488.00 679.19,487.11 679.27,486.03 C679.49,483.16 688.03,481.64 700.49,482.25 C724.74,483.43 749.23,494.39 766.71,511.88 C775.37,520.53 780.55,527.86 786.03,539.19 C790.11,547.61 790.95,551.53 788.75,551.85 C787.25,552.07 784.96,552.23 782.21,552.34 C782.98,552.25 783.59,552.13 784.00,552.00 ZM 231.50 455.00 C231.50,463.38 231.09,467.22 230.00,469.15 L 228.50 471.80 L 222.88 470.05 C209.96,466.02 202.60,459.80 197.23,448.34 C194.80,443.14 194.50,441.35 194.50,432.00 C194.50,425.20 195.00,420.32 195.91,418.15 C197.22,415.05 197.59,414.83 200.83,415.36 C211.03,417.01 223.34,426.85 228.56,437.50 C231.29,443.08 231.50,444.30 231.50,455.00 ZM 697.31 456.52 C704.88,452.26 712.76,450.07 724.00,448.58 C742.18,446.17 744.00,445.20 731.00,444.84 L 728.97 444.79 C713.44,444.36 708.84,444.23 704.63,445.44 C702.69,446.00 700.82,446.85 698.00,448.08 C696.21,448.87 694.39,449.64 692.75,450.32 C698.46,447.85 706.06,444.16 707.78,442.87 C709.04,441.93 713.54,439.66 717.78,437.84 C724.62,434.90 726.53,434.52 734.50,434.51 C742.79,434.51 744.09,434.79 751.00,438.12 C758.53,441.75 768.96,448.81 768.98,450.30 C769.02,451.95 763.26,456.33 756.75,459.62 C739.07,468.54 724.00,468.23 706.46,458.59 L 700.28 455.19 ZM 525.98 561.34 L 529.08 558.55 C534.24,553.88 540.50,551.07 546.67,550.19 L 546.67 550.19 C554.42,549.14 562.10,551.10 567.16,556.16 L 568.97 557.97 C555.95,560.11 544.13,561.04 525.98,561.34 ZM 551.89 511.00 C549.83,509.92 547.74,507.79 547.02,506.05 C543.30,497.07 555.25,491.76 560.75,499.94 C564.32,505.26 564.60,507.73 561.95,510.56 C559.21,513.46 556.75,513.57 551.89,511.00 ZM 531.50 522.26 C526.42,521.74 524.00,519.56 524.00,515.50 C524.00,511.38 526.68,509.00 531.33,509.00 C535.47,509.00 539.00,511.78 539.00,515.05 C539.00,516.86 536.30,523.27 535.72,522.83 C535.60,522.74 533.70,522.48 531.50,522.26 ZM 437.37 576.23 C434.93,574.26 433.00,570.86 433.00,568.57 C433.00,567.46 433.96,567.00 436.25,567.01 C440.39,567.03 443.77,568.78 446.31,572.20 C447.98,574.44 448.10,575.17 447.04,576.45 C445.33,578.51 440.03,578.38 437.37,576.23 ZM 609.58 570.82 C607.61,568.52 606.00,566.08 606.00,565.40 C606.00,564.72 605.73,563.45 605.39,562.58 C604.95,561.43 605.80,560.56 608.50,559.44 C610.54,558.58 612.46,558.13 612.77,558.43 C614.39,560.06 615.57,575.00 614.08,575.00 C613.57,575.00 611.55,573.12 609.58,570.82 ZM 536.62 487.53 C535.73,487.91 535.62,488.64 535.80,490.34 C536.50,496.94 532.21,496.92 526.40,490.30 C524.68,488.33 523.74,487.47 522.58,487.27 C523.27,487.29 523.84,487.40 524.15,487.59 C525.50,488.43 531.46,488.38 536.62,487.53 ZM 181.29 491.03 C190.08,491.08 198.67,492.43 206.71,494.90 C202.09,493.50 197.28,492.48 192.36,491.87 C187.88,491.32 182.28,491.02 179.92,491.19 C176.14,491.46 175.53,491.85 174.73,494.50 C173.15,499.74 173.44,525.69 175.07,536.77 C173.16,524.34 172.89,496.56 174.79,493.25 C175.86,491.36 176.91,491.00 181.29,491.03 ZM 675.44 423.19 C675.93,426.75 675.73,431.82 674.92,437.75 C675.12,435.62 675.22,433.40 675.28,430.89 ZM 623.69 542.92 C632.16,538.90 639.14,534.49 642.44,530.96 C638.56,535.11 632.14,539.17 623.69,542.92 ZM 373.21 539.29 C376.54,542.02 380.87,544.76 386.21,547.53 C390.30,549.66 394.71,551.65 399.40,553.51 C388.19,549.16 379.21,544.30 373.21,539.29 ZM 440.38 565.04 C449.47,566.78 459.12,568.21 469.30,569.31 C463.67,568.73 458.27,568.06 453.08,567.28 C452.22,567.15 451.36,567.01 450.50,566.87 C447.06,566.30 443.69,565.69 440.38,565.04 ZM 642.53 541.86 C644.49,540.42 646.29,538.93 647.92,537.39 C649.19,536.20 650.21,535.23 651.03,534.41 C650.48,534.99 649.85,535.64 649.12,536.38 C647.34,538.18 645.11,540.03 642.53,541.86 ZM 685.59 436.50 C685.84,436.20 686.08,435.91 686.31,435.63 L 683.50 439.46 L 683.48 439.01 ZM 206.71 494.90 C220.75,499.15 233.13,506.88 242.07,516.94 C233.11,506.87 220.73,499.19 206.71,494.90 ZM 590.46 553.61 C593.74,552.85 597.35,551.93 600.94,550.93 C601.18,550.87 601.42,550.80 601.65,550.74 C596.08,552.33 590.10,553.81 583.77,555.16 C585.91,554.69 588.17,554.16 590.46,553.61 ZM 736.33 548.28 C740.40,549.58 744.64,550.63 749.00,551.42 C749.99,551.60 751.20,551.77 752.56,551.91 C751.07,551.79 749.85,551.64 749.00,551.48 C744.62,550.65 740.38,549.58 736.33,548.28 ZM 403.68 545.73 C406.91,546.89 410.84,548.19 414.74,549.42 C410.75,548.21 407.08,546.99 403.68,545.73 ZM 687.27 449.00 L 684.76 453.21 L 685.07 453.12 L 684.69 453.23 L 687.03 449.37 C687.84,448.02 689.09,446.18 690.56,444.15 C689.10,446.18 687.90,447.94 687.27,449.00 ZM 329.93 494.18 C326.31,500.57 322.40,507.17 318.20,514.00 C322.18,507.52 326.33,500.49 329.93,494.18 ZM 541.00 487.87 C541.00,488.96 542.06,489.23 543.42,488.87 C542.06,489.24 541.00,488.99 541.00,487.93 C541.00,487.53 540.40,487.24 539.53,487.16 C540.52,487.15 541.00,487.39 541.00,487.87 ZM 699.37 523.72 C704.33,530.45 711.30,536.35 719.66,541.07 C711.28,536.35 704.34,530.47 699.37,523.72 ZM 736.33 548.28 C730.36,546.37 724.75,543.94 719.66,541.07 C724.73,543.92 730.33,546.35 736.33,548.28 ZM 520.01 487.50 C519.08,487.71 518.36,487.98 517.74,488.43 C518.35,487.98 519.05,487.71 519.92,487.52 C519.95,487.51 519.98,487.51 520.01,487.50 ZM 253.64 534.00 C253.63,534.00 253.62,534.00 253.61,534.00 C253.61,534.00 253.61,534.00 253.61,534.00 C253.62,534.00 253.63,534.00 253.64,534.00 Z" fill="rgb(108,176,13)"/>
<path d="M 0.00 512.00 L 0.00 0.00 L 512.00 0.00 L 1024.00 0.00 L 1024.00 512.00 L 1024.00 1024.00 L 512.00 1024.00 L 0.00 1024.00 L 0.00 512.00 ZM 663.00 734.62 C687.43,728.79 705.98,716.30 718.89,697.00 C725.46,687.17 730.18,675.24 732.03,663.70 C734.28,649.75 732.09,628.17 727.17,615.81 C726.58,614.33 707.05,574.96 683.77,528.31 C660.49,481.67 632.34,424.83 621.21,402.00 L 600.96 360.50 L 600.98 302.33 L 601.00 244.16 L 605.86 242.55 C612.26,240.42 618.45,235.00 621.74,228.64 C625.48,221.39 625.62,209.78 622.05,202.52 C618.67,195.66 612.10,189.56 605.39,187.05 C599.90,184.99 598.85,184.97 508.17,185.23 L 416.50 185.50 L 411.53 188.00 C400.62,193.49 394.77,202.83 394.60,215.00 C394.52,221.32 394.94,223.40 397.31,228.22 C400.67,235.07 406.76,240.58 412.97,242.39 L 417.50 243.71 L 417.76 302.95 L 418.02 362.19 L 354.52 488.85 C282.09,633.33 286.57,622.80 286.58,648.50 C286.58,660.99 286.97,664.92 288.88,672.00 C297.71,704.75 325.92,730.00 359.18,734.91 C363.20,735.51 367.62,736.17 369.00,736.38 C370.38,736.59 435.40,736.68 513.50,736.58 C646.14,736.42 655.99,736.29 663.00,734.62 ZM 272.02 649.25 C272.03,644.99 272.68,636.78 273.46,631.00 C278.62,592.79 293.24,554.57 318.20,514.00 C354.75,454.59 368.82,413.01 366.63,370.87 C365.87,356.18 365.81,356.01 361.17,356.68 C325.78,361.74 287.87,381.76 266.84,406.49 C251.22,424.85 243.66,441.75 240.88,464.50 C238.66,482.64 242.96,506.98 250.51,519.00 C252.50,522.16 254.93,534.00 253.59,534.00 C253.29,534.00 252.07,532.10 250.88,529.77 C239.07,506.62 211.39,491.21 181.29,491.03 C176.91,491.00 175.86,491.36 174.79,493.25 C172.80,496.73 173.19,527.15 175.37,538.50 C180.08,563.05 190.11,585.67 204.80,604.85 C212.00,614.26 228.71,630.21 239.55,638.04 C247.46,643.75 269.59,656.98 271.25,656.99 C271.66,657.00 272.01,653.51 272.02,649.25 ZM 788.75 551.85 C790.95,551.53 790.11,547.61 786.03,539.19 C780.55,527.86 775.37,520.53 766.71,511.88 C749.23,494.39 724.74,483.43 700.49,482.25 C688.03,481.64 679.49,483.16 679.27,486.03 C679.19,487.11 679.57,488.00 680.12,488.00 C680.67,488.00 680.84,488.45 680.50,489.00 C680.16,489.55 680.36,490.00 680.94,490.00 C681.52,490.00 681.91,490.34 681.79,490.75 C681.39,492.18 695.14,517.98 699.37,523.72 C709.38,537.31 727.42,547.40 749.00,551.48 C755.30,552.67 781.45,552.91 788.75,551.85 ZM 682.69 467.36 C688.04,462.61 694.18,457.93 696.35,456.96 L 700.28 455.19 L 706.46 458.59 C724.00,468.23 739.07,468.54 756.75,459.62 C763.26,456.33 769.02,451.95 768.98,450.30 C768.96,448.81 758.53,441.75 751.00,438.12 C744.09,434.79 742.79,434.51 734.50,434.51 C726.53,434.52 724.62,434.90 717.78,437.84 C713.54,439.66 709.04,441.93 707.78,442.87 C705.34,444.70 691.06,451.37 687.13,452.52 L 684.76 453.21 L 687.27 449.00 C688.65,446.69 692.73,441.04 696.34,436.45 C702.03,429.21 703.39,428.03 706.70,427.50 C725.36,424.49 735.93,420.32 745.72,412.10 C752.77,406.18 760.77,394.89 764.00,386.30 C766.37,379.97 769.00,367.62 769.00,362.77 L 769.00 359.71 L 759.25 360.32 C741.96,361.39 728.66,366.18 715.68,376.01 C701.62,386.66 695.76,397.38 694.03,415.69 C693.11,425.42 691.45,429.50 685.59,436.50 L 683.07 439.50 L 683.04 427.00 C683.00,415.06 683.16,414.05 686.66,404.50 C690.07,395.16 690.32,393.70 690.41,382.50 C690.52,367.97 688.46,360.85 680.87,349.49 C673.81,338.94 661.89,328.71 658.85,330.59 C656.76,331.88 652.12,343.72 650.43,352.05 C648.10,363.53 648.91,375.11 652.82,386.45 C656.63,397.53 660.96,404.71 669.00,413.32 L 675.50 420.29 L 675.28 430.89 C675.10,439.12 674.34,444.20 671.87,453.50 C667.64,469.48 667.25,472.98 669.57,474.67 C670.57,475.40 671.74,476.00 672.17,476.00 C672.61,476.00 677.34,472.11 682.69,467.36 ZM 231.50 455.00 C231.50,444.30 231.29,443.08 228.56,437.50 C223.34,426.85 211.03,417.01 200.83,415.36 C197.59,414.83 197.22,415.05 195.91,418.15 C195.00,420.32 194.50,425.20 194.50,432.00 C194.50,441.35 194.80,443.14 197.23,448.34 C202.60,459.80 209.96,466.02 222.88,470.05 L 228.50 471.80 L 230.00 469.15 C231.09,467.22 231.50,463.38 231.50,455.00 ZM 606.32 687.99 C601.69,686.13 600.80,681.11 604.45,677.45 C607.43,674.48 611.30,674.30 614.00,677.00 C616.70,679.70 616.52,683.57 613.55,686.55 C610.93,689.16 609.78,689.39 606.32,687.99 ZM 648.50 684.60 C643.69,682.48 641.70,679.54 641.60,674.42 C641.51,670.45 641.94,669.45 644.77,666.92 C652.26,660.22 663.00,665.10 663.00,675.21 C663.00,679.47 660.64,682.83 656.40,684.61 C652.40,686.28 652.30,686.28 648.50,684.60 ZM 411.57 674.43 C408.10,670.95 410.98,665.00 416.13,665.00 C419.44,665.00 421.00,666.76 421.00,670.50 C421.00,672.21 420.46,674.14 419.80,674.80 C418.10,676.50 413.43,676.29 411.57,674.43 ZM 381.54 657.66 C380.19,656.67 379.88,655.61 380.37,653.67 C381.63,648.62 389.00,649.27 389.00,654.42 C389.00,658.62 385.15,660.29 381.54,657.66 ZM 622.95 655.16 C618.31,651.40 621.87,642.00 627.95,642.00 C632.39,642.00 635.00,644.60 635.00,649.02 C635.00,655.94 628.19,659.41 622.95,655.16 ZM 672.92 642.08 C666.81,635.97 670.49,624.66 679.00,623.42 C683.26,622.79 688.58,625.76 690.02,629.57 C692.02,634.82 691.24,638.58 687.47,641.90 C682.61,646.16 677.07,646.23 672.92,642.08 ZM 378.17 630.69 C373.73,625.95 376.40,619.00 382.67,619.00 C386.44,619.00 389.33,622.04 389.33,626.00 C389.33,632.36 382.46,635.25 378.17,630.69 ZM 636.42 625.11 C624.12,617.62 635.19,599.87 648.02,606.51 C651.75,608.44 653.00,610.83 653.00,616.03 C653.00,619.44 652.38,620.82 649.60,623.60 C645.62,627.58 641.28,628.08 636.42,625.11 ZM 352.91 616.72 C348.19,613.09 347.81,607.04 352.05,602.80 C354.68,600.17 355.60,599.83 358.80,600.34 C364.25,601.21 367.37,605.20 366.67,610.42 C366.34,612.90 365.28,615.17 363.95,616.24 C361.46,618.26 355.27,618.53 352.91,616.72 ZM 658.66 596.94 C655.39,594.38 655.20,590.67 658.22,588.56 C661.18,586.48 664.32,586.59 666.35,588.83 C671.23,594.23 664.39,601.45 658.66,596.94 ZM 360.84 583.48 C351.82,578.58 351.87,564.25 360.92,559.16 C371.15,553.42 382.98,559.70 382.99,570.88 C383.00,576.11 380.05,581.40 375.95,583.52 C372.35,585.39 364.32,585.36 360.84,583.48 ZM 645.32 571.99 C640.86,570.20 639.55,563.45 643.00,560.00 C647.29,555.71 656.00,559.40 656.00,565.50 C656.00,568.50 651.92,573.03 649.30,572.94 C648.31,572.90 646.52,572.48 645.32,571.99 ZM 495.00 571.35 C449.17,568.97 411.75,560.78 386.21,547.53 C372.85,540.60 365.83,533.85 364.85,527.00 C364.35,523.44 367.07,524.17 373.94,529.45 C386.80,539.33 399.02,545.03 420.19,551.02 C449.49,559.30 468.44,561.51 510.00,561.47 C544.17,561.44 558.34,560.30 580.50,555.84 C610.62,549.77 633.41,540.61 642.44,530.96 C649.24,523.69 648.78,522.57 639.25,523.30 C634.99,523.63 628.68,524.78 625.23,525.85 L 618.95 527.81 L 617.48 524.95 C614.84,519.86 615.35,519.32 624.75,517.13 C635.28,514.68 645.33,513.02 649.72,513.01 C654.33,513.00 655.90,516.50 655.05,524.89 C654.41,531.19 654.30,531.39 647.92,537.39 C628.97,555.25 587.09,567.09 529.17,570.97 C514.71,571.94 507.95,572.02 495.00,571.35 ZM 491.22 539.44 C488.61,537.61 488.40,535.30 490.56,532.22 C492.27,529.77 496.81,529.21 498.80,531.20 C500.50,532.90 500.29,537.57 498.43,539.43 C496.44,541.42 494.05,541.43 491.22,539.44 ZM 403.50 508.84 C399.84,506.83 398.05,503.65 398.02,499.15 C398.00,495.56 398.54,494.30 401.11,491.90 C403.58,489.59 405.13,489.00 408.71,489.00 C412.48,489.00 413.74,489.54 416.60,492.40 C418.47,494.27 420.00,496.59 420.00,497.56 C420.00,498.52 418.15,501.72 415.88,504.66 C412.43,509.12 411.24,510.00 408.63,509.97 C406.91,509.95 404.60,509.44 403.50,508.84 ZM 493.97 499.13 C490.46,495.61 489.36,491.70 490.92,488.27 C491.86,486.22 491.83,485.51 490.80,484.86 C488.04,483.10 483.26,484.01 479.50,487.00 C475.20,490.42 474.05,490.60 469.98,488.49 C466.60,486.74 465.00,484.20 465.00,480.59 C465.00,477.70 469.13,475.15 478.86,472.04 C490.16,468.44 496.47,467.57 511.00,467.63 C526.71,467.70 540.42,470.15 546.79,474.02 C549.50,475.67 550.00,476.55 549.97,479.74 C549.95,482.26 549.14,484.40 547.52,486.25 C545.10,488.99 541.00,490.01 541.00,487.87 C541.00,487.11 539.77,486.96 537.25,487.42 C531.96,488.38 525.56,488.46 524.15,487.59 C523.49,487.18 521.59,487.15 519.92,487.52 C517.46,488.06 516.45,489.18 514.53,493.52 C511.76,499.78 508.35,502.00 501.47,502.00 C497.71,502.00 496.31,501.46 493.97,499.13 ZM 613.65 497.17 C608.39,491.36 616.46,483.46 622.00,489.00 C624.40,491.40 624.54,493.79 622.44,496.78 C620.52,499.52 615.97,499.73 613.65,497.17 ZM 379.96 482.75 C383.71,474.91 397.45,446.45 410.49,419.50 C423.53,392.55 434.83,368.76 435.60,366.62 C436.75,363.44 437.00,350.55 437.00,294.87 L 437.00 227.00 L 431.97 227.00 C426.49,227.00 421.27,225.24 419.15,222.68 C416.64,219.66 415.97,213.88 417.69,210.24 C421.07,203.12 415.91,203.50 510.33,203.50 L 595.15 203.50 L 598.58 207.24 C606.55,215.93 600.08,227.00 587.02,227.00 L 581.95 227.00 L 582.22 295.75 L 582.50 364.50 L 586.67 373.50 C588.97,378.45 599.92,401.40 611.01,424.50 C622.10,447.60 631.52,467.63 631.95,469.01 C632.70,471.43 632.58,471.51 628.88,471.16 C624.41,470.73 607.86,473.96 593.84,478.00 L 584.04 480.82 L 575.84 475.33 C560.51,465.08 546.89,459.56 529.29,456.49 C518.58,454.62 499.67,454.57 489.36,456.38 C485.04,457.14 480.52,457.78 479.33,457.81 C475.91,457.90 457.00,462.64 446.26,466.11 C425.49,472.80 384.37,490.03 376.85,495.18 C375.39,496.18 373.96,497.00 373.67,497.00 C373.38,497.00 376.21,490.59 379.96,482.75 ZM 416.34 467.59 C439.97,458.24 474.60,448.59 497.50,444.96 C511.35,442.77 512.95,442.13 512.98,438.79 C513.02,435.22 509.80,434.92 493.83,437.03 C464.31,440.91 437.32,446.68 420.84,452.62 C411.74,455.91 409.45,457.40 405.85,462.36 C403.03,466.25 401.98,472.00 404.09,472.00 C404.69,472.00 410.20,470.01 416.34,467.59 ZM 589.01 453.49 C592.91,451.48 594.84,445.45 593.00,441.01 C590.23,434.32 582.09,432.76 576.92,437.92 C568.72,446.13 578.61,458.87 589.01,453.49 ZM 550.14 446.43 C553.60,444.64 556.44,440.63 558.05,435.25 C561.43,423.92 551.16,412.06 538.98,413.23 C529.74,414.12 523.70,421.09 523.79,430.78 C523.91,444.37 537.97,452.72 550.14,446.43 ZM 516.47 409.72 C527.80,403.30 528.11,388.71 517.08,381.27 C514.52,379.55 512.28,379.00 507.86,379.00 C502.54,379.00 501.64,379.33 498.01,382.61 C489.06,390.69 491.16,404.40 502.17,409.85 C507.68,412.58 511.48,412.54 516.47,409.72 ZM 555.47 378.72 C561.34,375.40 564.00,370.87 564.00,364.22 C564.00,354.19 557.81,348.00 547.78,348.00 C538.33,348.00 531.60,354.64 531.63,363.92 C531.65,369.83 534.10,374.41 538.83,377.39 C545.43,381.56 549.84,381.91 555.47,378.72 ZM 507.38 353.91 C513.42,352.23 520.39,345.08 522.49,338.39 C524.68,331.44 524.02,325.65 520.25,318.67 C511.94,303.26 489.96,300.51 479.23,313.54 C476.22,317.19 473.00,325.41 473.00,329.43 C473.00,335.01 476.16,342.03 480.81,346.81 C487.92,354.10 497.48,356.66 507.38,353.91 ZM 535.93 288.25 C537.81,287.29 540.74,284.77 542.43,282.66 C545.22,279.17 545.50,278.15 545.50,271.58 C545.50,265.33 545.12,263.78 542.68,260.10 C534.70,248.04 514.11,250.01 509.07,263.32 C506.47,270.18 508.69,280.79 513.64,285.12 C519.39,290.15 529.43,291.56 535.93,288.25 ZM 533.04 425.55 C531.38,423.55 532.52,420.59 535.58,418.96 C538.59,417.34 541.33,418.56 541.80,421.73 C542.44,425.96 535.79,428.86 533.04,425.55 ZM 501.20 391.80 C499.47,390.07 499.72,387.56 501.83,385.65 C504.31,383.41 507.70,383.57 509.00,386.00 C511.36,390.41 504.74,395.34 501.20,391.80 ZM 541.75 361.92 C537.89,359.67 541.21,353.00 546.19,353.00 C550.54,353.00 550.44,359.63 546.04,361.98 C543.77,363.20 543.94,363.20 541.75,361.92 ZM 485.65 325.17 C481.67,320.77 485.49,313.00 491.64,313.00 C496.93,313.00 499.00,314.52 499.00,318.40 C499.00,323.42 495.71,327.00 491.08,327.00 C488.70,327.00 486.70,326.33 485.65,325.17 ZM 519.20 266.80 C516.11,263.71 519.31,258.00 524.13,258.00 C527.17,258.00 529.00,259.71 529.00,262.55 C529.00,266.87 522.22,269.82 519.20,266.80 Z" fill="rgb(253,254,254)"/>
</g>
</svg>